<mxfile host="www.draw.io" modified="2020-02-26T09:21:48.498Z" agent="Mozilla/5.0 (Windows NT 10.0; Win64; x64) AppleWebKit/537.36 (KHTML, like Gecko) Chrome/79.0.3945.130 Safari/537.36" etag="gds_sYpqHRV4oLSfBaVh" version="12.7.6" type="github">
  <diagram id="C5RBs43oDa-KdzZeNtuy" name="Page-1">
    <mxGraphModel dx="2048" dy="625" grid="1" gridSize="10" guides="1" tooltips="1" connect="1" arrows="1" fold="1" page="1" pageScale="1" pageWidth="827" pageHeight="1169" math="0" shadow="0">
      <root>
        <mxCell id="WIyWlLk6GJQsqaUBKTNV-0" />
        <mxCell id="WIyWlLk6GJQsqaUBKTNV-1" parent="WIyWlLk6GJQsqaUBKTNV-0" />
        <mxCell id="7PR91SfPj0W1hdnRgB1o-4" style="edgeStyle=orthogonalEdgeStyle;rounded=0;orthogonalLoop=1;jettySize=auto;html=1;exitX=0;exitY=0.5;exitDx=0;exitDy=0;entryX=0.5;entryY=1;entryDx=0;entryDy=0;" parent="WIyWlLk6GJQsqaUBKTNV-1" source="7PR91SfPj0W1hdnRgB1o-0" target="7PR91SfPj0W1hdnRgB1o-1" edge="1">
          <mxGeometry relative="1" as="geometry" />
        </mxCell>
        <mxCell id="7PR91SfPj0W1hdnRgB1o-22" style="edgeStyle=orthogonalEdgeStyle;rounded=0;orthogonalLoop=1;jettySize=auto;html=1;exitX=1;exitY=0.25;exitDx=0;exitDy=0;entryX=0;entryY=0.5;entryDx=0;entryDy=0;" parent="WIyWlLk6GJQsqaUBKTNV-1" source="7PR91SfPj0W1hdnRgB1o-0" target="7PR91SfPj0W1hdnRgB1o-10" edge="1">
          <mxGeometry relative="1" as="geometry">
            <Array as="points">
              <mxPoint x="490" y="670" />
              <mxPoint x="600" y="670" />
              <mxPoint x="600" y="540" />
              <mxPoint x="740" y="540" />
            </Array>
          </mxGeometry>
        </mxCell>
        <mxCell id="7PR91SfPj0W1hdnRgB1o-23" style="edgeStyle=orthogonalEdgeStyle;rounded=0;orthogonalLoop=1;jettySize=auto;html=1;exitX=1;exitY=0.5;exitDx=0;exitDy=0;entryX=0;entryY=0.5;entryDx=0;entryDy=0;" parent="WIyWlLk6GJQsqaUBKTNV-1" source="7PR91SfPj0W1hdnRgB1o-0" target="7PR91SfPj0W1hdnRgB1o-11" edge="1">
          <mxGeometry relative="1" as="geometry" />
        </mxCell>
        <mxCell id="7PR91SfPj0W1hdnRgB1o-26" style="edgeStyle=orthogonalEdgeStyle;rounded=0;orthogonalLoop=1;jettySize=auto;html=1;exitX=1;exitY=0.75;exitDx=0;exitDy=0;entryX=0;entryY=0.5;entryDx=0;entryDy=0;" parent="WIyWlLk6GJQsqaUBKTNV-1" source="7PR91SfPj0W1hdnRgB1o-0" target="7PR91SfPj0W1hdnRgB1o-12" edge="1">
          <mxGeometry relative="1" as="geometry">
            <Array as="points">
              <mxPoint x="490" y="760" />
            </Array>
          </mxGeometry>
        </mxCell>
        <mxCell id="7PR91SfPj0W1hdnRgB1o-27" style="edgeStyle=orthogonalEdgeStyle;rounded=0;orthogonalLoop=1;jettySize=auto;html=1;exitX=1;exitY=0.75;exitDx=0;exitDy=0;entryX=0;entryY=0.5;entryDx=0;entryDy=0;" parent="WIyWlLk6GJQsqaUBKTNV-1" source="7PR91SfPj0W1hdnRgB1o-0" target="7PR91SfPj0W1hdnRgB1o-14" edge="1">
          <mxGeometry relative="1" as="geometry">
            <Array as="points">
              <mxPoint x="490" y="790" />
              <mxPoint x="585" y="790" />
              <mxPoint x="585" y="870" />
            </Array>
          </mxGeometry>
        </mxCell>
        <mxCell id="7PR91SfPj0W1hdnRgB1o-0" value="Обучение в ВУЗе" style="rounded=1;whiteSpace=wrap;html=1;" parent="WIyWlLk6GJQsqaUBKTNV-1" vertex="1">
          <mxGeometry x="210" y="630" width="280" height="200" as="geometry" />
        </mxCell>
        <mxCell id="7PR91SfPj0W1hdnRgB1o-2" style="edgeStyle=orthogonalEdgeStyle;rounded=0;orthogonalLoop=1;jettySize=auto;html=1;exitX=1;exitY=0.5;exitDx=0;exitDy=0;entryX=0.5;entryY=0;entryDx=0;entryDy=0;" parent="WIyWlLk6GJQsqaUBKTNV-1" source="7PR91SfPj0W1hdnRgB1o-1" target="7PR91SfPj0W1hdnRgB1o-0" edge="1">
          <mxGeometry relative="1" as="geometry" />
        </mxCell>
        <mxCell id="7PR91SfPj0W1hdnRgB1o-1" value="Абитуриент" style="rounded=0;whiteSpace=wrap;html=1;" parent="WIyWlLk6GJQsqaUBKTNV-1" vertex="1">
          <mxGeometry x="10" y="410" width="120" height="60" as="geometry" />
        </mxCell>
        <mxCell id="7PR91SfPj0W1hdnRgB1o-5" value="Документы&lt;br&gt;" style="text;html=1;strokeColor=none;fillColor=none;align=center;verticalAlign=middle;whiteSpace=wrap;rounded=0;" parent="WIyWlLk6GJQsqaUBKTNV-1" vertex="1">
          <mxGeometry x="170" y="410" width="80" height="20" as="geometry" />
        </mxCell>
        <mxCell id="7PR91SfPj0W1hdnRgB1o-8" value="Документы" style="text;html=1;strokeColor=none;fillColor=none;align=center;verticalAlign=middle;whiteSpace=wrap;rounded=0;" parent="WIyWlLk6GJQsqaUBKTNV-1" vertex="1">
          <mxGeometry x="80" y="730" width="80" height="20" as="geometry" />
        </mxCell>
        <mxCell id="7PR91SfPj0W1hdnRgB1o-10" value="Бакалавр" style="rounded=0;whiteSpace=wrap;html=1;" parent="WIyWlLk6GJQsqaUBKTNV-1" vertex="1">
          <mxGeometry x="760" y="490" width="120" height="60" as="geometry" />
        </mxCell>
        <mxCell id="7PR91SfPj0W1hdnRgB1o-11" value="Магистр" style="rounded=0;whiteSpace=wrap;html=1;" parent="WIyWlLk6GJQsqaUBKTNV-1" vertex="1">
          <mxGeometry x="770" y="620" width="120" height="60" as="geometry" />
        </mxCell>
        <mxCell id="7PR91SfPj0W1hdnRgB1o-12" value="Офицер запаса" style="rounded=0;whiteSpace=wrap;html=1;" parent="WIyWlLk6GJQsqaUBKTNV-1" vertex="1">
          <mxGeometry x="780" y="730" width="120" height="60" as="geometry" />
        </mxCell>
        <mxCell id="7PR91SfPj0W1hdnRgB1o-14" value="Человек с неполным высшим образованием" style="rounded=0;whiteSpace=wrap;html=1;" parent="WIyWlLk6GJQsqaUBKTNV-1" vertex="1">
          <mxGeometry x="780" y="840" width="120" height="60" as="geometry" />
        </mxCell>
        <mxCell id="7PR91SfPj0W1hdnRgB1o-93" style="edgeStyle=orthogonalEdgeStyle;rounded=0;orthogonalLoop=1;jettySize=auto;html=1;exitX=0;exitY=0.5;exitDx=0;exitDy=0;entryX=1;entryY=0.5;entryDx=0;entryDy=0;" parent="WIyWlLk6GJQsqaUBKTNV-1" source="7PR91SfPj0W1hdnRgB1o-15" target="7PR91SfPj0W1hdnRgB1o-47" edge="1">
          <mxGeometry relative="1" as="geometry" />
        </mxCell>
        <mxCell id="7PR91SfPj0W1hdnRgB1o-15" value="База данных деканата" style="shape=process;whiteSpace=wrap;html=1;backgroundOutline=1;" parent="WIyWlLk6GJQsqaUBKTNV-1" vertex="1">
          <mxGeometry x="495" y="1470" width="120" height="60" as="geometry" />
        </mxCell>
        <mxCell id="7PR91SfPj0W1hdnRgB1o-28" value="Диплом бакалавра" style="text;html=1;strokeColor=none;fillColor=none;align=center;verticalAlign=middle;whiteSpace=wrap;rounded=0;" parent="WIyWlLk6GJQsqaUBKTNV-1" vertex="1">
          <mxGeometry x="650" y="510" width="90" height="20" as="geometry" />
        </mxCell>
        <mxCell id="7PR91SfPj0W1hdnRgB1o-29" value="Диплом магистра" style="text;html=1;strokeColor=none;fillColor=none;align=center;verticalAlign=middle;whiteSpace=wrap;rounded=0;" parent="WIyWlLk6GJQsqaUBKTNV-1" vertex="1">
          <mxGeometry x="650" y="620" width="90" height="20" as="geometry" />
        </mxCell>
        <mxCell id="7PR91SfPj0W1hdnRgB1o-30" value="Военный билет" style="text;html=1;strokeColor=none;fillColor=none;align=center;verticalAlign=middle;whiteSpace=wrap;rounded=0;" parent="WIyWlLk6GJQsqaUBKTNV-1" vertex="1">
          <mxGeometry x="655" y="730" width="90" height="20" as="geometry" />
        </mxCell>
        <mxCell id="7PR91SfPj0W1hdnRgB1o-33" value="Справка о неоконченном высшем образовании" style="text;html=1;strokeColor=none;fillColor=none;align=center;verticalAlign=middle;whiteSpace=wrap;rounded=0;" parent="WIyWlLk6GJQsqaUBKTNV-1" vertex="1">
          <mxGeometry x="650" y="810" width="100" height="50" as="geometry" />
        </mxCell>
        <mxCell id="7PR91SfPj0W1hdnRgB1o-42" style="edgeStyle=orthogonalEdgeStyle;rounded=0;orthogonalLoop=1;jettySize=auto;html=1;exitX=0.5;exitY=1;exitDx=0;exitDy=0;entryX=0.5;entryY=0;entryDx=0;entryDy=0;" parent="WIyWlLk6GJQsqaUBKTNV-1" source="7PR91SfPj0W1hdnRgB1o-35" target="7PR91SfPj0W1hdnRgB1o-15" edge="1">
          <mxGeometry relative="1" as="geometry">
            <mxPoint x="555" y="1370" as="targetPoint" />
          </mxGeometry>
        </mxCell>
        <mxCell id="7PR91SfPj0W1hdnRgB1o-68" style="edgeStyle=orthogonalEdgeStyle;rounded=0;orthogonalLoop=1;jettySize=auto;html=1;exitX=1;exitY=0.5;exitDx=0;exitDy=0;entryX=0;entryY=0.5;entryDx=0;entryDy=0;" parent="WIyWlLk6GJQsqaUBKTNV-1" source="7PR91SfPj0W1hdnRgB1o-35" target="7PR91SfPj0W1hdnRgB1o-64" edge="1">
          <mxGeometry relative="1" as="geometry" />
        </mxCell>
        <mxCell id="7PR91SfPj0W1hdnRgB1o-90" style="edgeStyle=orthogonalEdgeStyle;rounded=0;orthogonalLoop=1;jettySize=auto;html=1;exitX=0;exitY=0.75;exitDx=0;exitDy=0;entryX=0.5;entryY=0;entryDx=0;entryDy=0;" parent="WIyWlLk6GJQsqaUBKTNV-1" source="7PR91SfPj0W1hdnRgB1o-35" target="7PR91SfPj0W1hdnRgB1o-47" edge="1">
          <mxGeometry relative="1" as="geometry" />
        </mxCell>
        <mxCell id="7PR91SfPj0W1hdnRgB1o-95" style="edgeStyle=orthogonalEdgeStyle;rounded=0;orthogonalLoop=1;jettySize=auto;html=1;exitX=0;exitY=0.25;exitDx=0;exitDy=0;entryX=0;entryY=0.75;entryDx=0;entryDy=0;" parent="WIyWlLk6GJQsqaUBKTNV-1" source="7PR91SfPj0W1hdnRgB1o-35" target="7PR91SfPj0W1hdnRgB1o-52" edge="1">
          <mxGeometry relative="1" as="geometry">
            <mxPoint x="410" y="1110" as="targetPoint" />
          </mxGeometry>
        </mxCell>
        <mxCell id="7PR91SfPj0W1hdnRgB1o-97" style="edgeStyle=orthogonalEdgeStyle;rounded=0;orthogonalLoop=1;jettySize=auto;html=1;exitX=0;exitY=0.5;exitDx=0;exitDy=0;entryX=1;entryY=0.5;entryDx=0;entryDy=0;" parent="WIyWlLk6GJQsqaUBKTNV-1" source="7PR91SfPj0W1hdnRgB1o-35" target="7PR91SfPj0W1hdnRgB1o-96" edge="1">
          <mxGeometry relative="1" as="geometry" />
        </mxCell>
        <mxCell id="7PR91SfPj0W1hdnRgB1o-35" value="Обучение по программе бакалавриата" style="rounded=1;whiteSpace=wrap;html=1;" parent="WIyWlLk6GJQsqaUBKTNV-1" vertex="1">
          <mxGeometry x="455" y="1210" width="200" height="100" as="geometry" />
        </mxCell>
        <mxCell id="7PR91SfPj0W1hdnRgB1o-37" value="" style="endArrow=classic;html=1;" parent="WIyWlLk6GJQsqaUBKTNV-1" edge="1">
          <mxGeometry width="50" height="50" relative="1" as="geometry">
            <mxPoint x="540" y="850" as="sourcePoint" />
            <mxPoint x="540" y="1040" as="targetPoint" />
          </mxGeometry>
        </mxCell>
        <mxCell id="7PR91SfPj0W1hdnRgB1o-38" value="Документы для поступления" style="text;html=1;strokeColor=none;fillColor=none;align=center;verticalAlign=middle;whiteSpace=wrap;rounded=0;" parent="WIyWlLk6GJQsqaUBKTNV-1" vertex="1">
          <mxGeometry x="455" y="850" width="70" height="30" as="geometry" />
        </mxCell>
        <mxCell id="7PR91SfPj0W1hdnRgB1o-44" value="Информация об абитуриенте" style="text;html=1;strokeColor=none;fillColor=none;align=center;verticalAlign=middle;whiteSpace=wrap;rounded=0;" parent="WIyWlLk6GJQsqaUBKTNV-1" vertex="1">
          <mxGeometry x="470" y="1330" width="80" height="40" as="geometry" />
        </mxCell>
        <mxCell id="7PR91SfPj0W1hdnRgB1o-99" style="edgeStyle=orthogonalEdgeStyle;rounded=0;orthogonalLoop=1;jettySize=auto;html=1;exitX=0.5;exitY=1;exitDx=0;exitDy=0;entryX=0.5;entryY=0;entryDx=0;entryDy=0;" parent="WIyWlLk6GJQsqaUBKTNV-1" source="7PR91SfPj0W1hdnRgB1o-47" target="7PR91SfPj0W1hdnRgB1o-98" edge="1">
          <mxGeometry relative="1" as="geometry" />
        </mxCell>
        <mxCell id="7PR91SfPj0W1hdnRgB1o-47" value="Поступление на магистратуру" style="rounded=1;whiteSpace=wrap;html=1;" parent="WIyWlLk6GJQsqaUBKTNV-1" vertex="1">
          <mxGeometry x="215" y="1440" width="210" height="100" as="geometry" />
        </mxCell>
        <mxCell id="7PR91SfPj0W1hdnRgB1o-53" style="edgeStyle=orthogonalEdgeStyle;rounded=0;orthogonalLoop=1;jettySize=auto;html=1;exitX=1;exitY=0.5;exitDx=0;exitDy=0;entryX=0;entryY=0.5;entryDx=0;entryDy=0;" parent="WIyWlLk6GJQsqaUBKTNV-1" source="7PR91SfPj0W1hdnRgB1o-51" target="7PR91SfPj0W1hdnRgB1o-52" edge="1">
          <mxGeometry relative="1" as="geometry" />
        </mxCell>
        <mxCell id="7PR91SfPj0W1hdnRgB1o-51" value="База данных абитуриентов" style="shape=process;whiteSpace=wrap;html=1;backgroundOutline=1;" parent="WIyWlLk6GJQsqaUBKTNV-1" vertex="1">
          <mxGeometry x="160" y="1020" width="120" height="60" as="geometry" />
        </mxCell>
        <mxCell id="7PR91SfPj0W1hdnRgB1o-54" style="edgeStyle=orthogonalEdgeStyle;rounded=0;orthogonalLoop=1;jettySize=auto;html=1;exitX=0.5;exitY=1;exitDx=0;exitDy=0;entryX=0.459;entryY=-0.014;entryDx=0;entryDy=0;entryPerimeter=0;" parent="WIyWlLk6GJQsqaUBKTNV-1" source="7PR91SfPj0W1hdnRgB1o-52" target="7PR91SfPj0W1hdnRgB1o-35" edge="1">
          <mxGeometry relative="1" as="geometry" />
        </mxCell>
        <mxCell id="7PR91SfPj0W1hdnRgB1o-52" value="Поступление в ВУЗ" style="rounded=1;whiteSpace=wrap;html=1;" parent="WIyWlLk6GJQsqaUBKTNV-1" vertex="1">
          <mxGeometry x="430" y="1040" width="230" height="100" as="geometry" />
        </mxCell>
        <mxCell id="7PR91SfPj0W1hdnRgB1o-55" value="Документы для обучения&lt;br&gt;" style="text;html=1;strokeColor=none;fillColor=none;align=center;verticalAlign=middle;whiteSpace=wrap;rounded=0;" parent="WIyWlLk6GJQsqaUBKTNV-1" vertex="1">
          <mxGeometry x="570" y="1169" width="40" height="20" as="geometry" />
        </mxCell>
        <mxCell id="7PR91SfPj0W1hdnRgB1o-57" value="Конкурсные списки" style="text;html=1;strokeColor=none;fillColor=none;align=center;verticalAlign=middle;whiteSpace=wrap;rounded=0;" parent="WIyWlLk6GJQsqaUBKTNV-1" vertex="1">
          <mxGeometry x="300" y="1020" width="40" height="20" as="geometry" />
        </mxCell>
        <mxCell id="7PR91SfPj0W1hdnRgB1o-59" value="Отчисление&amp;nbsp;&lt;br&gt;" style="text;html=1;strokeColor=none;fillColor=none;align=center;verticalAlign=middle;whiteSpace=wrap;rounded=0;" parent="WIyWlLk6GJQsqaUBKTNV-1" vertex="1">
          <mxGeometry x="360" y="1190" width="40" height="20" as="geometry" />
        </mxCell>
        <mxCell id="7PR91SfPj0W1hdnRgB1o-67" style="edgeStyle=orthogonalEdgeStyle;rounded=0;orthogonalLoop=1;jettySize=auto;html=1;exitX=0.5;exitY=1;exitDx=0;exitDy=0;entryX=1;entryY=0.5;entryDx=0;entryDy=0;" parent="WIyWlLk6GJQsqaUBKTNV-1" source="7PR91SfPj0W1hdnRgB1o-63" target="7PR91SfPj0W1hdnRgB1o-65" edge="1">
          <mxGeometry relative="1" as="geometry" />
        </mxCell>
        <mxCell id="7PR91SfPj0W1hdnRgB1o-63" value="Прохождение псих.-проф. отбора" style="rounded=1;whiteSpace=wrap;html=1;" parent="WIyWlLk6GJQsqaUBKTNV-1" vertex="1">
          <mxGeometry x="1130" y="1210" width="193" height="100" as="geometry" />
        </mxCell>
        <mxCell id="7PR91SfPj0W1hdnRgB1o-66" style="edgeStyle=orthogonalEdgeStyle;rounded=0;orthogonalLoop=1;jettySize=auto;html=1;exitX=0.5;exitY=1;exitDx=0;exitDy=0;" parent="WIyWlLk6GJQsqaUBKTNV-1" source="7PR91SfPj0W1hdnRgB1o-64" target="7PR91SfPj0W1hdnRgB1o-65" edge="1">
          <mxGeometry relative="1" as="geometry" />
        </mxCell>
        <mxCell id="7PR91SfPj0W1hdnRgB1o-72" style="edgeStyle=orthogonalEdgeStyle;rounded=0;orthogonalLoop=1;jettySize=auto;html=1;exitX=1;exitY=0.5;exitDx=0;exitDy=0;entryX=0;entryY=0.5;entryDx=0;entryDy=0;" parent="WIyWlLk6GJQsqaUBKTNV-1" source="7PR91SfPj0W1hdnRgB1o-64" target="7PR91SfPj0W1hdnRgB1o-63" edge="1">
          <mxGeometry relative="1" as="geometry" />
        </mxCell>
        <mxCell id="7PR91SfPj0W1hdnRgB1o-64" value="Сдача физ. нормативов" style="rounded=1;whiteSpace=wrap;html=1;" parent="WIyWlLk6GJQsqaUBKTNV-1" vertex="1">
          <mxGeometry x="820" y="1210" width="200" height="90" as="geometry" />
        </mxCell>
        <mxCell id="7PR91SfPj0W1hdnRgB1o-78" style="edgeStyle=orthogonalEdgeStyle;rounded=0;orthogonalLoop=1;jettySize=auto;html=1;exitX=1;exitY=0.75;exitDx=0;exitDy=0;" parent="WIyWlLk6GJQsqaUBKTNV-1" source="7PR91SfPj0W1hdnRgB1o-65" target="7PR91SfPj0W1hdnRgB1o-79" edge="1">
          <mxGeometry relative="1" as="geometry">
            <mxPoint x="1370" y="1310" as="targetPoint" />
          </mxGeometry>
        </mxCell>
        <mxCell id="7PR91SfPj0W1hdnRgB1o-65" value="База данных ВУЦ" style="shape=process;whiteSpace=wrap;html=1;backgroundOutline=1;" parent="WIyWlLk6GJQsqaUBKTNV-1" vertex="1">
          <mxGeometry x="960" y="1400" width="120" height="60" as="geometry" />
        </mxCell>
        <mxCell id="7PR91SfPj0W1hdnRgB1o-69" value="Паспорт физ. подготовки" style="text;html=1;strokeColor=none;fillColor=none;align=center;verticalAlign=middle;whiteSpace=wrap;rounded=0;" parent="WIyWlLk6GJQsqaUBKTNV-1" vertex="1">
          <mxGeometry x="850" y="1320" width="40" height="20" as="geometry" />
        </mxCell>
        <mxCell id="7PR91SfPj0W1hdnRgB1o-70" value="Зачётка с 3-мя закрытыми семестрами&lt;br&gt;" style="text;html=1;strokeColor=none;fillColor=none;align=center;verticalAlign=middle;whiteSpace=wrap;rounded=0;" parent="WIyWlLk6GJQsqaUBKTNV-1" vertex="1">
          <mxGeometry x="675" y="1200" width="40" height="20" as="geometry" />
        </mxCell>
        <mxCell id="7PR91SfPj0W1hdnRgB1o-75" value="приписное свидетельство" style="text;html=1;strokeColor=none;fillColor=none;align=center;verticalAlign=middle;whiteSpace=wrap;rounded=0;" parent="WIyWlLk6GJQsqaUBKTNV-1" vertex="1">
          <mxGeometry x="1050" y="1220" width="40" height="20" as="geometry" />
        </mxCell>
        <mxCell id="7PR91SfPj0W1hdnRgB1o-76" value="Результаты прохождения отбора" style="text;html=1;strokeColor=none;fillColor=none;align=center;verticalAlign=middle;whiteSpace=wrap;rounded=0;" parent="WIyWlLk6GJQsqaUBKTNV-1" vertex="1">
          <mxGeometry x="1160" y="1340" width="40" height="20" as="geometry" />
        </mxCell>
        <mxCell id="7PR91SfPj0W1hdnRgB1o-77" style="edgeStyle=orthogonalEdgeStyle;rounded=0;orthogonalLoop=1;jettySize=auto;html=1;exitX=0.5;exitY=1;exitDx=0;exitDy=0;" parent="WIyWlLk6GJQsqaUBKTNV-1" source="7PR91SfPj0W1hdnRgB1o-76" target="7PR91SfPj0W1hdnRgB1o-76" edge="1">
          <mxGeometry relative="1" as="geometry" />
        </mxCell>
        <mxCell id="7PR91SfPj0W1hdnRgB1o-84" style="edgeStyle=orthogonalEdgeStyle;rounded=0;orthogonalLoop=1;jettySize=auto;html=1;exitX=0.25;exitY=0;exitDx=0;exitDy=0;entryX=0.871;entryY=-0.03;entryDx=0;entryDy=0;entryPerimeter=0;" parent="WIyWlLk6GJQsqaUBKTNV-1" source="7PR91SfPj0W1hdnRgB1o-79" target="7PR91SfPj0W1hdnRgB1o-35" edge="1">
          <mxGeometry relative="1" as="geometry">
            <mxPoint x="630" y="1170" as="targetPoint" />
            <Array as="points">
              <mxPoint x="1418" y="1190" />
              <mxPoint x="1013" y="1190" />
              <mxPoint x="1013" y="1170" />
              <mxPoint x="629" y="1170" />
            </Array>
          </mxGeometry>
        </mxCell>
        <mxCell id="7PR91SfPj0W1hdnRgB1o-108" style="edgeStyle=orthogonalEdgeStyle;rounded=0;orthogonalLoop=1;jettySize=auto;html=1;exitX=0.75;exitY=1;exitDx=0;exitDy=0;entryX=0.75;entryY=0;entryDx=0;entryDy=0;" parent="WIyWlLk6GJQsqaUBKTNV-1" source="7PR91SfPj0W1hdnRgB1o-79" target="7PR91SfPj0W1hdnRgB1o-107" edge="1">
          <mxGeometry relative="1" as="geometry" />
        </mxCell>
        <mxCell id="7PR91SfPj0W1hdnRgB1o-79" value="Поступление в ВУЦ" style="rounded=1;whiteSpace=wrap;html=1;" parent="WIyWlLk6GJQsqaUBKTNV-1" vertex="1">
          <mxGeometry x="1370" y="1210" width="190" height="90" as="geometry" />
        </mxCell>
        <mxCell id="7PR91SfPj0W1hdnRgB1o-82" value="Конкурсные списки" style="text;html=1;strokeColor=none;fillColor=none;align=center;verticalAlign=middle;whiteSpace=wrap;rounded=0;" parent="WIyWlLk6GJQsqaUBKTNV-1" vertex="1">
          <mxGeometry x="1100" y="1460" width="40" height="20" as="geometry" />
        </mxCell>
        <mxCell id="7PR91SfPj0W1hdnRgB1o-85" value="Отчисление из ВУЦ" style="text;html=1;strokeColor=none;fillColor=none;align=center;verticalAlign=middle;whiteSpace=wrap;rounded=0;" parent="WIyWlLk6GJQsqaUBKTNV-1" vertex="1">
          <mxGeometry x="1350" y="1160" width="40" height="20" as="geometry" />
        </mxCell>
        <mxCell id="7PR91SfPj0W1hdnRgB1o-94" value="Диплом бакалавра" style="text;html=1;strokeColor=none;fillColor=none;align=center;verticalAlign=middle;whiteSpace=wrap;rounded=0;" parent="WIyWlLk6GJQsqaUBKTNV-1" vertex="1">
          <mxGeometry x="390" y="1300" width="40" height="20" as="geometry" />
        </mxCell>
        <mxCell id="7PR91SfPj0W1hdnRgB1o-96" value="Бакалавр" style="rounded=0;whiteSpace=wrap;html=1;" parent="WIyWlLk6GJQsqaUBKTNV-1" vertex="1">
          <mxGeometry x="-130" y="1230" width="240" height="60" as="geometry" />
        </mxCell>
        <mxCell id="7PR91SfPj0W1hdnRgB1o-102" style="edgeStyle=orthogonalEdgeStyle;rounded=0;orthogonalLoop=1;jettySize=auto;html=1;exitX=0;exitY=0.5;exitDx=0;exitDy=0;entryX=1;entryY=0.5;entryDx=0;entryDy=0;" parent="WIyWlLk6GJQsqaUBKTNV-1" source="7PR91SfPj0W1hdnRgB1o-98" target="7PR91SfPj0W1hdnRgB1o-101" edge="1">
          <mxGeometry relative="1" as="geometry" />
        </mxCell>
        <mxCell id="7PR91SfPj0W1hdnRgB1o-103" style="edgeStyle=orthogonalEdgeStyle;rounded=0;orthogonalLoop=1;jettySize=auto;html=1;exitX=1;exitY=0.5;exitDx=0;exitDy=0;entryX=0.904;entryY=1.026;entryDx=0;entryDy=0;entryPerimeter=0;" parent="WIyWlLk6GJQsqaUBKTNV-1" source="7PR91SfPj0W1hdnRgB1o-98" target="7PR91SfPj0W1hdnRgB1o-35" edge="1">
          <mxGeometry relative="1" as="geometry" />
        </mxCell>
        <mxCell id="7PR91SfPj0W1hdnRgB1o-98" value="Обучение на магистратуре" style="rounded=1;whiteSpace=wrap;html=1;" parent="WIyWlLk6GJQsqaUBKTNV-1" vertex="1">
          <mxGeometry x="210" y="1580" width="220" height="90" as="geometry" />
        </mxCell>
        <mxCell id="7PR91SfPj0W1hdnRgB1o-101" value="Магистр" style="rounded=0;whiteSpace=wrap;html=1;" parent="WIyWlLk6GJQsqaUBKTNV-1" vertex="1">
          <mxGeometry x="-130" y="1595" width="240" height="60" as="geometry" />
        </mxCell>
        <mxCell id="7PR91SfPj0W1hdnRgB1o-104" value="Диплом" style="text;html=1;strokeColor=none;fillColor=none;align=center;verticalAlign=middle;whiteSpace=wrap;rounded=0;" parent="WIyWlLk6GJQsqaUBKTNV-1" vertex="1">
          <mxGeometry x="300" y="1230" width="40" height="20" as="geometry" />
        </mxCell>
        <mxCell id="7PR91SfPj0W1hdnRgB1o-105" value="Диплом" style="text;html=1;strokeColor=none;fillColor=none;align=center;verticalAlign=middle;whiteSpace=wrap;rounded=0;" parent="WIyWlLk6GJQsqaUBKTNV-1" vertex="1">
          <mxGeometry x="150" y="1595" width="40" height="20" as="geometry" />
        </mxCell>
        <mxCell id="7PR91SfPj0W1hdnRgB1o-106" value="Отчисление с магистратуры" style="text;html=1;strokeColor=none;fillColor=none;align=center;verticalAlign=middle;whiteSpace=wrap;rounded=0;" parent="WIyWlLk6GJQsqaUBKTNV-1" vertex="1">
          <mxGeometry x="455" y="1640" width="40" height="20" as="geometry" />
        </mxCell>
        <mxCell id="7PR91SfPj0W1hdnRgB1o-110" style="edgeStyle=orthogonalEdgeStyle;rounded=0;orthogonalLoop=1;jettySize=auto;html=1;exitX=0;exitY=0.5;exitDx=0;exitDy=0;entryX=1;entryY=0.5;entryDx=0;entryDy=0;" parent="WIyWlLk6GJQsqaUBKTNV-1" source="7PR91SfPj0W1hdnRgB1o-107" target="7PR91SfPj0W1hdnRgB1o-109" edge="1">
          <mxGeometry relative="1" as="geometry" />
        </mxCell>
        <mxCell id="7PR91SfPj0W1hdnRgB1o-107" value="Обучение в ВУЦ" style="rounded=1;whiteSpace=wrap;html=1;" parent="WIyWlLk6GJQsqaUBKTNV-1" vertex="1">
          <mxGeometry x="1380" y="1500" width="170" height="90" as="geometry" />
        </mxCell>
        <mxCell id="7PR91SfPj0W1hdnRgB1o-109" value="Офицер запаса" style="rounded=0;whiteSpace=wrap;html=1;" parent="WIyWlLk6GJQsqaUBKTNV-1" vertex="1">
          <mxGeometry x="1040" y="1520" width="210" height="60" as="geometry" />
        </mxCell>
        <mxCell id="7PR91SfPj0W1hdnRgB1o-111" value="Военный билет" style="text;html=1;strokeColor=none;fillColor=none;align=center;verticalAlign=middle;whiteSpace=wrap;rounded=0;" parent="WIyWlLk6GJQsqaUBKTNV-1" vertex="1">
          <mxGeometry x="1323" y="1510" width="40" height="20" as="geometry" />
        </mxCell>
        <mxCell id="7PR91SfPj0W1hdnRgB1o-114" value="Заключение договора" style="text;html=1;strokeColor=none;fillColor=none;align=center;verticalAlign=middle;whiteSpace=wrap;rounded=0;" parent="WIyWlLk6GJQsqaUBKTNV-1" vertex="1">
          <mxGeometry x="350" y="1550" width="40" height="20" as="geometry" />
        </mxCell>
        <mxCell id="7PR91SfPj0W1hdnRgB1o-117" value="Заключение договора" style="text;html=1;strokeColor=none;fillColor=none;align=center;verticalAlign=middle;whiteSpace=wrap;rounded=0;" parent="WIyWlLk6GJQsqaUBKTNV-1" vertex="1">
          <mxGeometry x="1530" y="1310" width="40" height="20" as="geometry" />
        </mxCell>
        <mxCell id="1hEHZYGOaFpvxmI4YYNT-2" style="edgeStyle=orthogonalEdgeStyle;rounded=0;orthogonalLoop=1;jettySize=auto;html=1;exitX=1;exitY=0.5;exitDx=0;exitDy=0;entryX=0;entryY=0.75;entryDx=0;entryDy=0;" edge="1" parent="WIyWlLk6GJQsqaUBKTNV-1" source="1hEHZYGOaFpvxmI4YYNT-1" target="7PR91SfPj0W1hdnRgB1o-64">
          <mxGeometry relative="1" as="geometry" />
        </mxCell>
        <mxCell id="1hEHZYGOaFpvxmI4YYNT-1" value="База данных деканата" style="shape=process;whiteSpace=wrap;html=1;backgroundOutline=1;" vertex="1" parent="WIyWlLk6GJQsqaUBKTNV-1">
          <mxGeometry x="650" y="1470" width="120" height="60" as="geometry" />
        </mxCell>
        <mxCell id="1hEHZYGOaFpvxmI4YYNT-7" style="edgeStyle=orthogonalEdgeStyle;rounded=0;orthogonalLoop=1;jettySize=auto;html=1;exitX=1;exitY=0.5;exitDx=0;exitDy=0;entryX=0;entryY=0.5;entryDx=0;entryDy=0;" edge="1" parent="WIyWlLk6GJQsqaUBKTNV-1" source="1hEHZYGOaFpvxmI4YYNT-3" target="1hEHZYGOaFpvxmI4YYNT-4">
          <mxGeometry relative="1" as="geometry" />
        </mxCell>
        <mxCell id="1hEHZYGOaFpvxmI4YYNT-3" value="Студент" style="rounded=0;whiteSpace=wrap;html=1;" vertex="1" parent="WIyWlLk6GJQsqaUBKTNV-1">
          <mxGeometry x="-150" y="1754" width="180" height="86" as="geometry" />
        </mxCell>
        <mxCell id="1hEHZYGOaFpvxmI4YYNT-14" style="edgeStyle=orthogonalEdgeStyle;rounded=0;orthogonalLoop=1;jettySize=auto;html=1;exitX=1;exitY=0.5;exitDx=0;exitDy=0;" edge="1" parent="WIyWlLk6GJQsqaUBKTNV-1" source="1hEHZYGOaFpvxmI4YYNT-4" target="1hEHZYGOaFpvxmI4YYNT-13">
          <mxGeometry relative="1" as="geometry" />
        </mxCell>
        <mxCell id="1hEHZYGOaFpvxmI4YYNT-20" style="edgeStyle=orthogonalEdgeStyle;rounded=0;orthogonalLoop=1;jettySize=auto;html=1;exitX=0.5;exitY=1;exitDx=0;exitDy=0;entryX=0.418;entryY=-0.056;entryDx=0;entryDy=0;entryPerimeter=0;" edge="1" parent="WIyWlLk6GJQsqaUBKTNV-1" source="1hEHZYGOaFpvxmI4YYNT-4" target="1hEHZYGOaFpvxmI4YYNT-19">
          <mxGeometry relative="1" as="geometry">
            <Array as="points">
              <mxPoint x="270" y="2080" />
              <mxPoint x="458" y="2080" />
            </Array>
          </mxGeometry>
        </mxCell>
        <mxCell id="1hEHZYGOaFpvxmI4YYNT-34" style="edgeStyle=orthogonalEdgeStyle;rounded=0;orthogonalLoop=1;jettySize=auto;html=1;exitX=0;exitY=1;exitDx=0;exitDy=0;" edge="1" parent="WIyWlLk6GJQsqaUBKTNV-1" source="1hEHZYGOaFpvxmI4YYNT-4">
          <mxGeometry relative="1" as="geometry">
            <mxPoint x="80" y="2010" as="targetPoint" />
            <Array as="points">
              <mxPoint x="180" y="1920" />
              <mxPoint x="180" y="1965" />
              <mxPoint x="80" y="1965" />
            </Array>
          </mxGeometry>
        </mxCell>
        <mxCell id="1hEHZYGOaFpvxmI4YYNT-4" value="Прохождение военных сборов" style="rounded=1;whiteSpace=wrap;html=1;" vertex="1" parent="WIyWlLk6GJQsqaUBKTNV-1">
          <mxGeometry x="170" y="1840" width="200" height="80" as="geometry" />
        </mxCell>
        <mxCell id="1hEHZYGOaFpvxmI4YYNT-10" value="Личное дело со сданными экзаменами" style="text;html=1;strokeColor=none;fillColor=none;align=center;verticalAlign=middle;whiteSpace=wrap;rounded=0;" vertex="1" parent="WIyWlLk6GJQsqaUBKTNV-1">
          <mxGeometry x="30" y="1760" width="120" height="20" as="geometry" />
        </mxCell>
        <mxCell id="1hEHZYGOaFpvxmI4YYNT-17" style="edgeStyle=orthogonalEdgeStyle;rounded=0;orthogonalLoop=1;jettySize=auto;html=1;exitX=1;exitY=0.5;exitDx=0;exitDy=0;entryX=0;entryY=0.5;entryDx=0;entryDy=0;" edge="1" parent="WIyWlLk6GJQsqaUBKTNV-1" source="1hEHZYGOaFpvxmI4YYNT-13" target="1hEHZYGOaFpvxmI4YYNT-16">
          <mxGeometry relative="1" as="geometry" />
        </mxCell>
        <mxCell id="1hEHZYGOaFpvxmI4YYNT-21" style="edgeStyle=orthogonalEdgeStyle;rounded=0;orthogonalLoop=1;jettySize=auto;html=1;exitX=0.5;exitY=1;exitDx=0;exitDy=0;entryX=1;entryY=0.5;entryDx=0;entryDy=0;" edge="1" parent="WIyWlLk6GJQsqaUBKTNV-1" source="1hEHZYGOaFpvxmI4YYNT-13" target="1hEHZYGOaFpvxmI4YYNT-19">
          <mxGeometry relative="1" as="geometry">
            <Array as="points">
              <mxPoint x="670" y="1950" />
              <mxPoint x="670" y="2160" />
            </Array>
          </mxGeometry>
        </mxCell>
        <mxCell id="1hEHZYGOaFpvxmI4YYNT-37" style="edgeStyle=orthogonalEdgeStyle;rounded=0;orthogonalLoop=1;jettySize=auto;html=1;exitX=0.5;exitY=0;exitDx=0;exitDy=0;entryX=0;entryY=0.5;entryDx=0;entryDy=0;" edge="1" parent="WIyWlLk6GJQsqaUBKTNV-1" source="1hEHZYGOaFpvxmI4YYNT-13" target="1hEHZYGOaFpvxmI4YYNT-38">
          <mxGeometry relative="1" as="geometry">
            <mxPoint x="634.9999999999995" y="1798.5" as="targetPoint" />
          </mxGeometry>
        </mxCell>
        <mxCell id="1hEHZYGOaFpvxmI4YYNT-13" value="Сдача итоговой аттестации" style="rounded=1;whiteSpace=wrap;html=1;" vertex="1" parent="WIyWlLk6GJQsqaUBKTNV-1">
          <mxGeometry x="482.5" y="1870" width="215" height="80" as="geometry" />
        </mxCell>
        <mxCell id="1hEHZYGOaFpvxmI4YYNT-15" value="Справка об успешном обучении" style="text;html=1;strokeColor=none;fillColor=none;align=center;verticalAlign=middle;whiteSpace=wrap;rounded=0;" vertex="1" parent="WIyWlLk6GJQsqaUBKTNV-1">
          <mxGeometry x="379" y="1840" width="70" height="20" as="geometry" />
        </mxCell>
        <mxCell id="1hEHZYGOaFpvxmI4YYNT-29" style="edgeStyle=orthogonalEdgeStyle;rounded=0;orthogonalLoop=1;jettySize=auto;html=1;exitX=0.5;exitY=0;exitDx=0;exitDy=0;entryX=0.5;entryY=1;entryDx=0;entryDy=0;" edge="1" parent="WIyWlLk6GJQsqaUBKTNV-1" source="1hEHZYGOaFpvxmI4YYNT-16" target="1hEHZYGOaFpvxmI4YYNT-26">
          <mxGeometry relative="1" as="geometry" />
        </mxCell>
        <mxCell id="1hEHZYGOaFpvxmI4YYNT-31" style="edgeStyle=orthogonalEdgeStyle;rounded=0;orthogonalLoop=1;jettySize=auto;html=1;exitX=1;exitY=0.5;exitDx=0;exitDy=0;entryX=0;entryY=0.5;entryDx=0;entryDy=0;" edge="1" parent="WIyWlLk6GJQsqaUBKTNV-1" source="1hEHZYGOaFpvxmI4YYNT-16" target="1hEHZYGOaFpvxmI4YYNT-30">
          <mxGeometry relative="1" as="geometry" />
        </mxCell>
        <mxCell id="1hEHZYGOaFpvxmI4YYNT-16" value="Вручение погон" style="rounded=1;whiteSpace=wrap;html=1;" vertex="1" parent="WIyWlLk6GJQsqaUBKTNV-1">
          <mxGeometry x="790" y="1910" width="205" height="80" as="geometry" />
        </mxCell>
        <mxCell id="1hEHZYGOaFpvxmI4YYNT-18" value="Лист с оценками" style="text;html=1;strokeColor=none;fillColor=none;align=center;verticalAlign=middle;whiteSpace=wrap;rounded=0;" vertex="1" parent="WIyWlLk6GJQsqaUBKTNV-1">
          <mxGeometry x="710" y="1870" width="40" height="20" as="geometry" />
        </mxCell>
        <mxCell id="1hEHZYGOaFpvxmI4YYNT-23" style="edgeStyle=orthogonalEdgeStyle;rounded=0;orthogonalLoop=1;jettySize=auto;html=1;exitX=0;exitY=0.5;exitDx=0;exitDy=0;entryX=0.25;entryY=1;entryDx=0;entryDy=0;" edge="1" parent="WIyWlLk6GJQsqaUBKTNV-1" source="1hEHZYGOaFpvxmI4YYNT-19" target="1hEHZYGOaFpvxmI4YYNT-4">
          <mxGeometry relative="1" as="geometry">
            <mxPoint x="200" y="1940" as="targetPoint" />
          </mxGeometry>
        </mxCell>
        <mxCell id="1hEHZYGOaFpvxmI4YYNT-24" style="edgeStyle=orthogonalEdgeStyle;rounded=0;orthogonalLoop=1;jettySize=auto;html=1;exitX=1;exitY=0.25;exitDx=0;exitDy=0;entryX=0.457;entryY=0.998;entryDx=0;entryDy=0;entryPerimeter=0;" edge="1" parent="WIyWlLk6GJQsqaUBKTNV-1" source="1hEHZYGOaFpvxmI4YYNT-19" target="1hEHZYGOaFpvxmI4YYNT-13">
          <mxGeometry relative="1" as="geometry" />
        </mxCell>
        <mxCell id="1hEHZYGOaFpvxmI4YYNT-19" value="База данных деканата" style="shape=process;whiteSpace=wrap;html=1;backgroundOutline=1;" vertex="1" parent="WIyWlLk6GJQsqaUBKTNV-1">
          <mxGeometry x="400" y="2120" width="140" height="80" as="geometry" />
        </mxCell>
        <mxCell id="1hEHZYGOaFpvxmI4YYNT-33" style="edgeStyle=orthogonalEdgeStyle;rounded=0;orthogonalLoop=1;jettySize=auto;html=1;exitX=0;exitY=0.5;exitDx=0;exitDy=0;entryX=0.581;entryY=-0.004;entryDx=0;entryDy=0;entryPerimeter=0;" edge="1" parent="WIyWlLk6GJQsqaUBKTNV-1" source="1hEHZYGOaFpvxmI4YYNT-26" target="1hEHZYGOaFpvxmI4YYNT-4">
          <mxGeometry relative="1" as="geometry" />
        </mxCell>
        <mxCell id="1hEHZYGOaFpvxmI4YYNT-26" value="БД Мин. Обороны" style="shape=process;whiteSpace=wrap;html=1;backgroundOutline=1;" vertex="1" parent="WIyWlLk6GJQsqaUBKTNV-1">
          <mxGeometry x="890" y="1720" width="120" height="60" as="geometry" />
        </mxCell>
        <mxCell id="1hEHZYGOaFpvxmI4YYNT-30" value="Офицер запаса" style="rounded=0;whiteSpace=wrap;html=1;" vertex="1" parent="WIyWlLk6GJQsqaUBKTNV-1">
          <mxGeometry x="1090" y="1920" width="260" height="60" as="geometry" />
        </mxCell>
        <mxCell id="1hEHZYGOaFpvxmI4YYNT-32" value="Военный билет" style="text;html=1;strokeColor=none;fillColor=none;align=center;verticalAlign=middle;whiteSpace=wrap;rounded=0;" vertex="1" parent="WIyWlLk6GJQsqaUBKTNV-1">
          <mxGeometry x="1010" y="1910" width="40" height="20" as="geometry" />
        </mxCell>
        <mxCell id="1hEHZYGOaFpvxmI4YYNT-38" value="Человек, не окончивший военную кафедру" style="rounded=0;whiteSpace=wrap;html=1;" vertex="1" parent="WIyWlLk6GJQsqaUBKTNV-1">
          <mxGeometry x="670" y="1780" width="150" height="60" as="geometry" />
        </mxCell>
        <mxCell id="1hEHZYGOaFpvxmI4YYNT-39" value="Человек, не окончивший военную кафедру" style="rounded=0;whiteSpace=wrap;html=1;" vertex="1" parent="WIyWlLk6GJQsqaUBKTNV-1">
          <mxGeometry x="10" y="2010" width="150" height="60" as="geometry" />
        </mxCell>
        <mxCell id="1hEHZYGOaFpvxmI4YYNT-41" style="edgeStyle=orthogonalEdgeStyle;rounded=0;orthogonalLoop=1;jettySize=auto;html=1;exitX=1;exitY=0.5;exitDx=0;exitDy=0;entryX=0.25;entryY=1;entryDx=0;entryDy=0;" edge="1" parent="WIyWlLk6GJQsqaUBKTNV-1" source="1hEHZYGOaFpvxmI4YYNT-40" target="1hEHZYGOaFpvxmI4YYNT-13">
          <mxGeometry relative="1" as="geometry">
            <mxPoint x="539.9999999999995" y="1960" as="targetPoint" />
          </mxGeometry>
        </mxCell>
        <mxCell id="1hEHZYGOaFpvxmI4YYNT-42" style="edgeStyle=orthogonalEdgeStyle;rounded=0;orthogonalLoop=1;jettySize=auto;html=1;exitX=0;exitY=0.5;exitDx=0;exitDy=0;entryX=0.75;entryY=1;entryDx=0;entryDy=0;" edge="1" parent="WIyWlLk6GJQsqaUBKTNV-1" source="1hEHZYGOaFpvxmI4YYNT-40" target="1hEHZYGOaFpvxmI4YYNT-4">
          <mxGeometry relative="1" as="geometry" />
        </mxCell>
        <mxCell id="1hEHZYGOaFpvxmI4YYNT-40" value="БД военной кафедры" style="shape=process;whiteSpace=wrap;html=1;backgroundOutline=1;" vertex="1" parent="WIyWlLk6GJQsqaUBKTNV-1">
          <mxGeometry x="354" y="1980" width="120" height="60" as="geometry" />
        </mxCell>
      </root>
    </mxGraphModel>
  </diagram>
</mxfile>
